<svg width="375" height="250" viewBox="0 0 375 250" fill="none" xmlns="http://www.w3.org/2000/svg">
<mask id="mask0" mask-type="alpha" maskUnits="userSpaceOnUse" x="-541" y="0" width="1366" height="250">
<rect x="-541" width="1366" height="250" fill="#C4C4C4"/>
</mask>
<g mask="url(#mask0)">
<rect x="-541" y="-111" width="1366" height="471" fill="url(#paint0_linear)"/>
<path d="M-613 97C-544 77.5 -392.3 46.3 -337.5 77.5C-282.7 108.7 -220.667 231.167 -196.5 288.5L286 275C210.833 232.667 59.1 133.9 53.5 77.5C47.9 21.1 143.5 -60 192 -93.5L426 -69.5C429.167 -45.1667 445.1 10.9 483.5 40.5C521.9 70.1 765.5 -9.16667 882.5 -52.5L897 344C852.5 279.333 749.1 148.6 691.5 143C633.9 137.4 461.833 215.667 383 255.5" stroke="white" stroke-opacity="0.15" stroke-width="15"/>
<circle cx="61" cy="250" r="9" fill="white" fill-opacity="0.2"/>
<circle cx="304" cy="35" r="9" fill="white" fill-opacity="0.2"/>
<circle cx="336" cy="221" r="17" stroke="white" stroke-opacity="0.6" stroke-width="8"/>
</g>
<defs>
<linearGradient id="paint0_linear" x1="825" y1="-59.9999" x2="-103.452" y2="732.556" gradientUnits="userSpaceOnUse">
<stop stop-color="#98D0FC"/>
<stop offset="1" stop-color="#3481D7"/>
</linearGradient>
</defs>
</svg>
